<svg xmlns="http://www.w3.org/2000/svg" width="233" height="46" viewBox="0 0 233 46">
  <g id="download-image-button" transform="translate(-87 -103)">
    <g id="Rectangle_98" data-name="Rectangle 98" transform="translate(87 103)" fill="#232c44" stroke="#627cbf" stroke-width="1">
      <rect width="233" height="46" rx="23" stroke="none"/>
      <rect x="0.5" y="0.5" width="232" height="45" rx="22.5" fill="none"/>
    </g>
    <path id="Path_139" data-name="Path 139" d="M1.28,0V-11.36H5.312a5.754,5.754,0,0,1,3.072.76,4.792,4.792,0,0,1,1.848,2.048A6.534,6.534,0,0,1,10.848-5.7a6.322,6.322,0,0,1-.68,3.008A4.833,4.833,0,0,1,8.24-.7,5.861,5.861,0,0,1,5.312,0ZM9.024-5.7a4.858,4.858,0,0,0-.44-2.12A3.391,3.391,0,0,0,7.32-9.256a3.688,3.688,0,0,0-2.008-.52H3.072v8.192h2.24a3.594,3.594,0,0,0,2.024-.544A3.488,3.488,0,0,0,8.592-3.6,4.909,4.909,0,0,0,9.024-5.7ZM17.456.08A5.04,5.04,0,0,1,15.232-.4,5.336,5.336,0,0,1,13.52-1.7,6.077,6.077,0,0,1,12.408-3.56a5.923,5.923,0,0,1-.392-2.12,5.745,5.745,0,0,1,.416-2.168,6.089,6.089,0,0,1,1.152-1.84,5.5,5.5,0,0,1,1.736-1.28,5.015,5.015,0,0,1,2.168-.472,4.918,4.918,0,0,1,2.216.5,5.366,5.366,0,0,1,1.712,1.328,6.3,6.3,0,0,1,1.1,1.856,5.817,5.817,0,0,1,.392,2.1A5.843,5.843,0,0,1,22.5-3.5a5.964,5.964,0,0,1-1.144,1.84A5.4,5.4,0,0,1,19.624-.384,5.087,5.087,0,0,1,17.456.08ZM13.84-5.68A4.783,4.783,0,0,0,14.1-4.128a4.319,4.319,0,0,0,.728,1.336,3.422,3.422,0,0,0,1.144.92,3.316,3.316,0,0,0,1.5.336,3.261,3.261,0,0,0,1.536-.352,3.354,3.354,0,0,0,1.128-.952,4.471,4.471,0,0,0,.7-1.344,4.847,4.847,0,0,0,.24-1.5,4.85,4.85,0,0,0-.248-1.544A4.125,4.125,0,0,0,20.1-8.552a3.531,3.531,0,0,0-1.144-.92,3.231,3.231,0,0,0-1.48-.336,3.261,3.261,0,0,0-1.536.352,3.475,3.475,0,0,0-1.136.944,4.425,4.425,0,0,0-.712,1.328A4.68,4.68,0,0,0,13.84-5.68Zm14.528-5.632h1.68l1.408,3.856,1.424-3.856h1.68L32.608-6.256,34.3-2.08l3.536-9.28h1.968L35.152,0H33.6L31.472-5.088,29.328,0H27.76L23.12-11.36h1.952l3.552,9.28,1.7-4.176Zm14.576,3.28V0H41.152V-11.36h1.472l6.432,8.208v-8.192h1.808V0H49.3ZM53.424,0V-11.36h1.792v9.776h6.1V0Zm13.76.08A5.04,5.04,0,0,1,64.96-.4a5.336,5.336,0,0,1-1.712-1.3A6.077,6.077,0,0,1,62.136-3.56a5.923,5.923,0,0,1-.392-2.12,5.745,5.745,0,0,1,.416-2.168,6.089,6.089,0,0,1,1.152-1.84,5.5,5.5,0,0,1,1.736-1.28,5.015,5.015,0,0,1,2.168-.472,4.918,4.918,0,0,1,2.216.5,5.366,5.366,0,0,1,1.712,1.328,6.3,6.3,0,0,1,1.1,1.856,5.817,5.817,0,0,1,.392,2.1A5.843,5.843,0,0,1,72.232-3.5a5.964,5.964,0,0,1-1.144,1.84A5.4,5.4,0,0,1,69.352-.384,5.087,5.087,0,0,1,67.184.08ZM63.568-5.68a4.783,4.783,0,0,0,.256,1.552,4.319,4.319,0,0,0,.728,1.336,3.422,3.422,0,0,0,1.144.92,3.316,3.316,0,0,0,1.5.336,3.261,3.261,0,0,0,1.536-.352,3.354,3.354,0,0,0,1.128-.952,4.471,4.471,0,0,0,.7-1.344,4.847,4.847,0,0,0,.24-1.5,4.85,4.85,0,0,0-.248-1.544,4.125,4.125,0,0,0-.728-1.328,3.531,3.531,0,0,0-1.144-.92,3.231,3.231,0,0,0-1.48-.336,3.261,3.261,0,0,0-1.536.352,3.475,3.475,0,0,0-1.136.944,4.425,4.425,0,0,0-.712,1.328A4.68,4.68,0,0,0,63.568-5.68Zm13.776-5.68h1.7L83.456,0H81.568l-1.2-3.088H75.984L74.8,0H72.9Zm2.672,6.944L78.192-9.392,76.3-4.416ZM84.864,0V-11.36H88.9a5.754,5.754,0,0,1,3.072.76,4.792,4.792,0,0,1,1.848,2.048A6.534,6.534,0,0,1,94.432-5.7a6.322,6.322,0,0,1-.68,3.008A4.833,4.833,0,0,1,91.824-.7,5.861,5.861,0,0,1,88.9,0Zm7.744-5.7a4.858,4.858,0,0,0-.44-2.12A3.391,3.391,0,0,0,90.9-9.256a3.688,3.688,0,0,0-2.008-.52h-2.24v8.192H88.9a3.594,3.594,0,0,0,2.024-.544A3.488,3.488,0,0,0,92.176-3.6,4.909,4.909,0,0,0,92.608-5.7ZM100.272,0V-11.36h1.792V0Zm13.9,0V-8.1l-3.344,6.144h-1.056L106.416-8.1V0h-1.792V-11.36h1.92l3.76,6.944,3.76-6.944h1.92V0Zm7.648-11.36h1.7L127.936,0h-1.888l-1.2-3.088h-4.384L119.28,0h-1.9ZM124.5-4.416l-1.824-4.976-1.888,4.976Zm9.056,4.5a4.819,4.819,0,0,1-2.1-.464,5.33,5.33,0,0,1-1.7-1.28,6.121,6.121,0,0,1-1.136-1.856,5.991,5.991,0,0,1-.408-2.208,5.867,5.867,0,0,1,.408-2.192,5.968,5.968,0,0,1,1.136-1.824,5.211,5.211,0,0,1,1.712-1.248,5.132,5.132,0,0,1,2.152-.448,5.137,5.137,0,0,1,2.728.68,4.375,4.375,0,0,1,1.672,1.8l-1.376.992a3.083,3.083,0,0,0-1.272-1.392,3.606,3.606,0,0,0-1.8-.464,3.147,3.147,0,0,0-1.456.336,3.473,3.473,0,0,0-1.128.92,4.088,4.088,0,0,0-.712,1.328,5.05,5.05,0,0,0-.24,1.56,4.715,4.715,0,0,0,.272,1.616,4.11,4.11,0,0,0,.768,1.32,3.579,3.579,0,0,0,1.168.888,3.343,3.343,0,0,0,1.456.32,3.557,3.557,0,0,0,1.768-.472,5.372,5.372,0,0,0,1.576-1.416V-1.6A4.53,4.53,0,0,1,133.552.08Zm3.312-4.5H134.48V-5.744h3.888V0h-1.5Zm11.344,2.832V0h-7.792V-11.36h7.648v1.584h-5.856v3.232h5.072v1.488h-5.072v3.472Z" transform="translate(129 132)" fill="#fff"/>
  </g>
</svg>
