<svg xmlns="http://www.w3.org/2000/svg" width="233" height="46" viewBox="0 0 233 46">
  <g id="download-xd-button" transform="translate(-87 -192)">
    <g id="Rectangle_98" data-name="Rectangle 98" transform="translate(87 192)" fill="#232c44" stroke="#627cbf" stroke-width="1">
      <rect width="233" height="46" rx="23" stroke="none"/>
      <rect x="0.5" y="0.5" width="232" height="45" rx="22.5" fill="none"/>
    </g>
    <path id="Path_138" data-name="Path 138" d="M1.28,0V-11.36H5.312a5.754,5.754,0,0,1,3.072.76,4.792,4.792,0,0,1,1.848,2.048A6.534,6.534,0,0,1,10.848-5.7a6.322,6.322,0,0,1-.68,3.008A4.833,4.833,0,0,1,8.24-.7,5.861,5.861,0,0,1,5.312,0ZM9.024-5.7a4.858,4.858,0,0,0-.44-2.12A3.391,3.391,0,0,0,7.32-9.256a3.688,3.688,0,0,0-2.008-.52H3.072v8.192h2.24a3.594,3.594,0,0,0,2.024-.544A3.488,3.488,0,0,0,8.592-3.6,4.909,4.909,0,0,0,9.024-5.7ZM17.456.08A5.04,5.04,0,0,1,15.232-.4,5.336,5.336,0,0,1,13.52-1.7,6.077,6.077,0,0,1,12.408-3.56a5.923,5.923,0,0,1-.392-2.12,5.745,5.745,0,0,1,.416-2.168,6.089,6.089,0,0,1,1.152-1.84,5.5,5.5,0,0,1,1.736-1.28,5.015,5.015,0,0,1,2.168-.472,4.918,4.918,0,0,1,2.216.5,5.366,5.366,0,0,1,1.712,1.328,6.3,6.3,0,0,1,1.1,1.856,5.817,5.817,0,0,1,.392,2.1A5.843,5.843,0,0,1,22.5-3.5a5.964,5.964,0,0,1-1.144,1.84A5.4,5.4,0,0,1,19.624-.384,5.087,5.087,0,0,1,17.456.08ZM13.84-5.68A4.783,4.783,0,0,0,14.1-4.128a4.319,4.319,0,0,0,.728,1.336,3.422,3.422,0,0,0,1.144.92,3.316,3.316,0,0,0,1.5.336,3.261,3.261,0,0,0,1.536-.352,3.354,3.354,0,0,0,1.128-.952,4.471,4.471,0,0,0,.7-1.344,4.847,4.847,0,0,0,.24-1.5,4.85,4.85,0,0,0-.248-1.544A4.125,4.125,0,0,0,20.1-8.552a3.531,3.531,0,0,0-1.144-.92,3.231,3.231,0,0,0-1.48-.336,3.261,3.261,0,0,0-1.536.352,3.475,3.475,0,0,0-1.136.944,4.425,4.425,0,0,0-.712,1.328A4.68,4.68,0,0,0,13.84-5.68Zm14.528-5.632h1.68l1.408,3.856,1.424-3.856h1.68L32.608-6.256,34.3-2.08l3.536-9.28h1.968L35.152,0H33.6L31.472-5.088,29.328,0H27.76L23.12-11.36h1.952l3.552,9.28,1.7-4.176Zm14.576,3.28V0H41.152V-11.36h1.472l6.432,8.208v-8.192h1.808V0H49.3ZM53.424,0V-11.36h1.792v9.776h6.1V0Zm13.76.08A5.04,5.04,0,0,1,64.96-.4a5.336,5.336,0,0,1-1.712-1.3A6.077,6.077,0,0,1,62.136-3.56a5.923,5.923,0,0,1-.392-2.12,5.745,5.745,0,0,1,.416-2.168,6.089,6.089,0,0,1,1.152-1.84,5.5,5.5,0,0,1,1.736-1.28,5.015,5.015,0,0,1,2.168-.472,4.918,4.918,0,0,1,2.216.5,5.366,5.366,0,0,1,1.712,1.328,6.3,6.3,0,0,1,1.1,1.856,5.817,5.817,0,0,1,.392,2.1A5.843,5.843,0,0,1,72.232-3.5a5.964,5.964,0,0,1-1.144,1.84A5.4,5.4,0,0,1,69.352-.384,5.087,5.087,0,0,1,67.184.08ZM63.568-5.68a4.783,4.783,0,0,0,.256,1.552,4.319,4.319,0,0,0,.728,1.336,3.422,3.422,0,0,0,1.144.92,3.316,3.316,0,0,0,1.5.336,3.261,3.261,0,0,0,1.536-.352,3.354,3.354,0,0,0,1.128-.952,4.471,4.471,0,0,0,.7-1.344,4.847,4.847,0,0,0,.24-1.5,4.85,4.85,0,0,0-.248-1.544,4.125,4.125,0,0,0-.728-1.328,3.531,3.531,0,0,0-1.144-.92,3.231,3.231,0,0,0-1.48-.336,3.261,3.261,0,0,0-1.536.352,3.475,3.475,0,0,0-1.136.944,4.425,4.425,0,0,0-.712,1.328A4.68,4.68,0,0,0,63.568-5.68Zm13.776-5.68h1.7L83.456,0H81.568l-1.2-3.088H75.984L74.8,0H72.9Zm2.672,6.944L78.192-9.392,76.3-4.416ZM84.864,0V-11.36H88.9a5.754,5.754,0,0,1,3.072.76,4.792,4.792,0,0,1,1.848,2.048A6.534,6.534,0,0,1,94.432-5.7a6.322,6.322,0,0,1-.68,3.008A4.833,4.833,0,0,1,91.824-.7,5.861,5.861,0,0,1,88.9,0Zm7.744-5.7a4.858,4.858,0,0,0-.44-2.12A3.391,3.391,0,0,0,90.9-9.256a3.688,3.688,0,0,0-2.008-.52h-2.24v8.192H88.9a3.594,3.594,0,0,0,2.024-.544A3.488,3.488,0,0,0,92.176-3.6,4.909,4.909,0,0,0,92.608-5.7Zm8.208-5.664L103.952-6.9l3.136-4.464h1.984l-4.1,5.76L108.944,0H106.96l-3.008-4.3L100.944,0h-2l3.968-5.6-4.1-5.76ZM110.352,0V-11.36h4.032a5.754,5.754,0,0,1,3.072.76A4.792,4.792,0,0,1,119.3-8.552,6.534,6.534,0,0,1,119.92-5.7a6.322,6.322,0,0,1-.68,3.008A4.833,4.833,0,0,1,117.312-.7a5.861,5.861,0,0,1-2.928.7ZM118.1-5.7a4.858,4.858,0,0,0-.44-2.12,3.391,3.391,0,0,0-1.264-1.44,3.688,3.688,0,0,0-2.008-.52h-2.24v8.192h2.24a3.594,3.594,0,0,0,2.024-.544A3.488,3.488,0,0,0,117.664-3.6,4.909,4.909,0,0,0,118.1-5.7ZM125.76,0V-11.36h7.568v1.584h-5.776v3.392h4.832V-4.9h-4.832V0Zm9.264,0V-11.36h1.792V0Zm4.352,0V-11.36h1.792v9.776h6.1V0Zm17.136-1.584V0H148.72V-11.36h7.648v1.584h-5.856v3.232h5.072v1.488h-5.072v3.472Zm8.576-7.1a2.458,2.458,0,0,0-.464-.376,4.508,4.508,0,0,0-.72-.376,5.508,5.508,0,0,0-.9-.288,4.351,4.351,0,0,0-.992-.112,2.73,2.73,0,0,0-1.664.416,1.369,1.369,0,0,0-.544,1.152,1.174,1.174,0,0,0,.3.856,2.294,2.294,0,0,0,.928.52q.624.208,1.568.448a11.454,11.454,0,0,1,2,.648,3.088,3.088,0,0,1,1.3,1,2.766,2.766,0,0,1,.448,1.648,3.224,3.224,0,0,1-.32,1.488,2.7,2.7,0,0,1-.9,1.016,4.046,4.046,0,0,1-1.328.576,6.785,6.785,0,0,1-1.616.184A8.21,8.21,0,0,1,160.5-.064a7.693,7.693,0,0,1-1.6-.52,6.962,6.962,0,0,1-1.4-.84l.816-1.536a3.537,3.537,0,0,0,.6.456,6.573,6.573,0,0,0,.912.472,7.273,7.273,0,0,0,1.136.376,5.223,5.223,0,0,0,1.256.152,2.973,2.973,0,0,0,1.64-.376,1.218,1.218,0,0,0,.568-1.08,1.2,1.2,0,0,0-.368-.92,2.958,2.958,0,0,0-1.072-.584q-.7-.24-1.68-.48a11.167,11.167,0,0,1-1.872-.664,2.713,2.713,0,0,1-1.128-.928,2.574,2.574,0,0,1-.376-1.448,3.22,3.22,0,0,1,.544-1.9,3.332,3.332,0,0,1,1.48-1.168,5.4,5.4,0,0,1,2.1-.392,6.12,6.12,0,0,1,1.456.168,6.567,6.567,0,0,1,1.288.456,6.7,6.7,0,0,1,1.1.656Z" transform="translate(124 221)" fill="#fff"/>
  </g>
</svg>
