<svg xmlns="http://www.w3.org/2000/svg" width="233" height="46" viewBox="0 0 233 46">
  <g id="visit-website-button" transform="translate(-87 -278)">
    <g id="Rectangle_97" data-name="Rectangle 97" transform="translate(87 278)" fill="#232c44" stroke="#627cbf" stroke-width="1">
      <rect width="233" height="46" rx="23" stroke="none"/>
      <rect x="0.5" y="0.5" width="232" height="45" rx="22.5" fill="none"/>
    </g>
    <path id="Path_137" data-name="Path 137" d="M2-11.36,5.424-2.192,8.832-11.36h1.9L6.272,0h-1.7L.1-11.36ZM12.128,0V-11.36H13.92V0ZM23.2-8.688a2.458,2.458,0,0,0-.464-.376,4.508,4.508,0,0,0-.72-.376,5.508,5.508,0,0,0-.9-.288,4.351,4.351,0,0,0-.992-.112,2.73,2.73,0,0,0-1.664.416,1.369,1.369,0,0,0-.544,1.152,1.174,1.174,0,0,0,.3.856,2.294,2.294,0,0,0,.928.52q.624.208,1.568.448a11.453,11.453,0,0,1,2,.648,3.088,3.088,0,0,1,1.3,1,2.766,2.766,0,0,1,.448,1.648,3.224,3.224,0,0,1-.32,1.488,2.7,2.7,0,0,1-.9,1.016,4.046,4.046,0,0,1-1.328.576A6.785,6.785,0,0,1,20.3.112a8.21,8.21,0,0,1-1.688-.176,7.693,7.693,0,0,1-1.6-.52,6.962,6.962,0,0,1-1.4-.84l.816-1.536a3.537,3.537,0,0,0,.6.456,6.572,6.572,0,0,0,.912.472,7.273,7.273,0,0,0,1.136.376,5.223,5.223,0,0,0,1.256.152,2.973,2.973,0,0,0,1.64-.376,1.218,1.218,0,0,0,.568-1.08,1.2,1.2,0,0,0-.368-.92A2.958,2.958,0,0,0,21.1-4.464q-.7-.24-1.68-.48a11.167,11.167,0,0,1-1.872-.664,2.713,2.713,0,0,1-1.128-.928,2.573,2.573,0,0,1-.376-1.448,3.22,3.22,0,0,1,.544-1.9,3.332,3.332,0,0,1,1.48-1.168,5.4,5.4,0,0,1,2.1-.392,6.12,6.12,0,0,1,1.456.168,6.567,6.567,0,0,1,1.288.456,6.7,6.7,0,0,1,1.1.656ZM26.256,0V-11.36h1.792V0ZM38.944-9.776H35.168V0H33.36V-9.776H29.568V-11.36h9.376Zm8.464-1.536h1.68L50.5-7.456l1.424-3.856H53.6L51.648-6.256l1.7,4.176,3.536-9.28h1.968L54.192,0H52.64L50.512-5.088,48.368,0H46.8L42.16-11.36h1.952l3.552,9.28,1.7-4.176ZM67.984-1.584V0H60.192V-11.36H67.84v1.584H61.984v3.232h5.072v1.488H61.984v3.472ZM78.768-2.928A2.613,2.613,0,0,1,78.3-1.36,3.034,3.034,0,0,1,77.024-.352,4.322,4.322,0,0,1,75.264,0H69.84V-11.36H75.7a2.292,2.292,0,0,1,1.384.424,2.785,2.785,0,0,1,.9,1.088,3.217,3.217,0,0,1,.312,1.384,3.049,3.049,0,0,1-.424,1.56,2.588,2.588,0,0,1-1.208,1.08A2.886,2.886,0,0,1,78.2-4.776,3,3,0,0,1,78.768-2.928Zm-1.84-.336a1.891,1.891,0,0,0-.2-.872,1.763,1.763,0,0,0-.544-.64,1.345,1.345,0,0,0-.808-.248H71.632v3.472h3.632a1.6,1.6,0,0,0,.856-.232,1.664,1.664,0,0,0,.592-.624A1.745,1.745,0,0,0,76.928-3.264Zm-5.3-6.544v3.344h3.3a1.5,1.5,0,0,0,.8-.216,1.574,1.574,0,0,0,.56-.592,1.739,1.739,0,0,0,.208-.856A1.892,1.892,0,0,0,76.3-9a1.52,1.52,0,0,0-.52-.592,1.35,1.35,0,0,0-.76-.216ZM87.36-8.688a2.458,2.458,0,0,0-.464-.376,4.508,4.508,0,0,0-.72-.376,5.508,5.508,0,0,0-.9-.288,4.351,4.351,0,0,0-.992-.112,2.73,2.73,0,0,0-1.664.416,1.369,1.369,0,0,0-.544,1.152,1.174,1.174,0,0,0,.3.856,2.294,2.294,0,0,0,.928.52q.624.208,1.568.448a11.453,11.453,0,0,1,2,.648,3.088,3.088,0,0,1,1.3,1,2.766,2.766,0,0,1,.448,1.648,3.224,3.224,0,0,1-.32,1.488,2.7,2.7,0,0,1-.9,1.016,4.046,4.046,0,0,1-1.328.576,6.785,6.785,0,0,1-1.616.184,8.21,8.21,0,0,1-1.688-.176,7.693,7.693,0,0,1-1.6-.52,6.962,6.962,0,0,1-1.4-.84l.816-1.536a3.537,3.537,0,0,0,.6.456,6.572,6.572,0,0,0,.912.472,7.273,7.273,0,0,0,1.136.376A5.223,5.223,0,0,0,84.5-1.5a2.973,2.973,0,0,0,1.64-.376A1.218,1.218,0,0,0,86.7-2.96a1.2,1.2,0,0,0-.368-.92,2.958,2.958,0,0,0-1.072-.584q-.7-.24-1.68-.48a11.167,11.167,0,0,1-1.872-.664,2.713,2.713,0,0,1-1.128-.928,2.573,2.573,0,0,1-.376-1.448,3.22,3.22,0,0,1,.544-1.9,3.332,3.332,0,0,1,1.48-1.168,5.4,5.4,0,0,1,2.1-.392,6.12,6.12,0,0,1,1.456.168,6.567,6.567,0,0,1,1.288.456,6.7,6.7,0,0,1,1.1.656ZM90.416,0V-11.36h1.792V0ZM103.1-9.776H99.328V0H97.52V-9.776H93.728V-11.36H103.1Zm9.312,8.192V0h-7.792V-11.36h7.648v1.584h-5.856v3.232h5.072v1.488h-5.072v3.472Z" transform="translate(142 307)" fill="#fff"/>
    <path id="iconmonstr-arrow-67" d="M9.5,0A9.5,9.5,0,1,0,19,9.5,9.5,9.5,0,0,0,9.5,0ZM8.259,14.254l-1.119-1.12L10.76,9.5,7.139,5.875,8.259,4.754,13,9.5,8.259,14.254Z" transform="translate(260 292)" fill="#627cbf"/>
  </g>
</svg>
